<mxfile host="app.diagrams.net" modified="2020-08-05T02:23:16.112Z" agent="5.0 (Windows NT 10.0; WOW64) AppleWebKit/537.36 (KHTML, like Gecko) Chrome/74.0.3729.131 Safari/537.36" etag="Dh322Dssc2JsptrONqZx" version="13.3.5" type="github">
  <diagram id="e9UiTfiHcr35FhOPyFHr" name="Page-1">
    <mxGraphModel dx="1360" dy="802" grid="1" gridSize="10" guides="1" tooltips="1" connect="1" arrows="1" fold="1" page="1" pageScale="1" pageWidth="1920" pageHeight="1200" math="0" shadow="0">
      <root>
        <mxCell id="0" />
        <mxCell id="1" parent="0" />
        <mxCell id="Jx1giT7bDCoMtXLS9Xqi-11" style="edgeStyle=orthogonalEdgeStyle;rounded=0;orthogonalLoop=1;jettySize=auto;html=1;exitX=1;exitY=0.5;exitDx=0;exitDy=0;entryX=0;entryY=0.5;entryDx=0;entryDy=0;" edge="1" parent="1" source="Jx1giT7bDCoMtXLS9Xqi-1" target="Jx1giT7bDCoMtXLS9Xqi-2">
          <mxGeometry relative="1" as="geometry" />
        </mxCell>
        <mxCell id="Jx1giT7bDCoMtXLS9Xqi-1" value="URL" style="rounded=1;whiteSpace=wrap;html=1;" vertex="1" parent="1">
          <mxGeometry x="240" y="240" width="120" height="60" as="geometry" />
        </mxCell>
        <mxCell id="Jx1giT7bDCoMtXLS9Xqi-12" style="edgeStyle=orthogonalEdgeStyle;rounded=0;orthogonalLoop=1;jettySize=auto;html=1;exitX=1;exitY=0.5;exitDx=0;exitDy=0;entryX=0;entryY=0.5;entryDx=0;entryDy=0;" edge="1" parent="1" source="Jx1giT7bDCoMtXLS9Xqi-2" target="Jx1giT7bDCoMtXLS9Xqi-3">
          <mxGeometry relative="1" as="geometry" />
        </mxCell>
        <mxCell id="Jx1giT7bDCoMtXLS9Xqi-2" value="解析出参数" style="rounded=1;whiteSpace=wrap;html=1;" vertex="1" parent="1">
          <mxGeometry x="400" y="240" width="120" height="60" as="geometry" />
        </mxCell>
        <mxCell id="Jx1giT7bDCoMtXLS9Xqi-15" style="edgeStyle=orthogonalEdgeStyle;rounded=0;orthogonalLoop=1;jettySize=auto;html=1;exitX=0.5;exitY=1;exitDx=0;exitDy=0;entryX=1;entryY=0.5;entryDx=0;entryDy=0;" edge="1" parent="1" source="Jx1giT7bDCoMtXLS9Xqi-3" target="Jx1giT7bDCoMtXLS9Xqi-5">
          <mxGeometry relative="1" as="geometry" />
        </mxCell>
        <mxCell id="Jx1giT7bDCoMtXLS9Xqi-3" value="参数与业务场景的对应关系" style="rounded=1;whiteSpace=wrap;html=1;" vertex="1" parent="1">
          <mxGeometry x="570" y="240" width="120" height="60" as="geometry" />
        </mxCell>
        <mxCell id="Jx1giT7bDCoMtXLS9Xqi-8" style="edgeStyle=orthogonalEdgeStyle;rounded=0;orthogonalLoop=1;jettySize=auto;html=1;exitX=0.75;exitY=1;exitDx=0;exitDy=0;entryX=0;entryY=0.5;entryDx=0;entryDy=0;" edge="1" parent="1" source="Jx1giT7bDCoMtXLS9Xqi-4" target="Jx1giT7bDCoMtXLS9Xqi-6">
          <mxGeometry relative="1" as="geometry" />
        </mxCell>
        <mxCell id="Jx1giT7bDCoMtXLS9Xqi-10" style="edgeStyle=orthogonalEdgeStyle;rounded=0;orthogonalLoop=1;jettySize=auto;html=1;exitX=0.5;exitY=1;exitDx=0;exitDy=0;entryX=0.5;entryY=0;entryDx=0;entryDy=0;" edge="1" parent="1" source="Jx1giT7bDCoMtXLS9Xqi-4" target="Jx1giT7bDCoMtXLS9Xqi-9">
          <mxGeometry relative="1" as="geometry" />
        </mxCell>
        <mxCell id="Jx1giT7bDCoMtXLS9Xqi-4" value="数据集collections" style="rounded=1;whiteSpace=wrap;html=1;" vertex="1" parent="1">
          <mxGeometry x="240" y="400" width="120" height="60" as="geometry" />
        </mxCell>
        <mxCell id="Jx1giT7bDCoMtXLS9Xqi-7" style="edgeStyle=orthogonalEdgeStyle;rounded=0;orthogonalLoop=1;jettySize=auto;html=1;exitX=0;exitY=0.5;exitDx=0;exitDy=0;entryX=1;entryY=0.25;entryDx=0;entryDy=0;" edge="1" parent="1" source="Jx1giT7bDCoMtXLS9Xqi-5" target="Jx1giT7bDCoMtXLS9Xqi-4">
          <mxGeometry relative="1" as="geometry" />
        </mxCell>
        <mxCell id="Jx1giT7bDCoMtXLS9Xqi-5" value="查询的参数IN&amp;nbsp; LIST" style="rounded=1;whiteSpace=wrap;html=1;" vertex="1" parent="1">
          <mxGeometry x="400" y="350" width="120" height="60" as="geometry" />
        </mxCell>
        <mxCell id="Jx1giT7bDCoMtXLS9Xqi-24" style="edgeStyle=orthogonalEdgeStyle;rounded=0;orthogonalLoop=1;jettySize=auto;html=1;exitX=1;exitY=0.5;exitDx=0;exitDy=0;entryX=1;entryY=0.5;entryDx=0;entryDy=0;" edge="1" parent="1" source="Jx1giT7bDCoMtXLS9Xqi-6" target="Jx1giT7bDCoMtXLS9Xqi-20">
          <mxGeometry relative="1" as="geometry" />
        </mxCell>
        <mxCell id="Jx1giT7bDCoMtXLS9Xqi-6" value="输出有参数OUT&amp;nbsp; LIST" style="rounded=1;whiteSpace=wrap;html=1;" vertex="1" parent="1">
          <mxGeometry x="400" y="450" width="120" height="60" as="geometry" />
        </mxCell>
        <mxCell id="Jx1giT7bDCoMtXLS9Xqi-9" value="输出图片资料及相应collections查询出来的结果" style="rounded=1;whiteSpace=wrap;html=1;" vertex="1" parent="1">
          <mxGeometry x="240" y="540" width="120" height="60" as="geometry" />
        </mxCell>
        <mxCell id="Jx1giT7bDCoMtXLS9Xqi-13" value="车辆档案 car" style="rounded=1;whiteSpace=wrap;html=1;" vertex="1" parent="1">
          <mxGeometry x="730" y="240" width="120" height="60" as="geometry" />
        </mxCell>
        <mxCell id="Jx1giT7bDCoMtXLS9Xqi-16" style="edgeStyle=orthogonalEdgeStyle;rounded=0;orthogonalLoop=1;jettySize=auto;html=1;exitX=0.75;exitY=1;exitDx=0;exitDy=0;entryX=0;entryY=0.5;entryDx=0;entryDy=0;" edge="1" parent="1" source="Jx1giT7bDCoMtXLS9Xqi-18" target="Jx1giT7bDCoMtXLS9Xqi-21">
          <mxGeometry relative="1" as="geometry" />
        </mxCell>
        <mxCell id="Jx1giT7bDCoMtXLS9Xqi-17" style="edgeStyle=orthogonalEdgeStyle;rounded=0;orthogonalLoop=1;jettySize=auto;html=1;exitX=0.5;exitY=1;exitDx=0;exitDy=0;entryX=0.5;entryY=0;entryDx=0;entryDy=0;" edge="1" parent="1" source="Jx1giT7bDCoMtXLS9Xqi-18" target="Jx1giT7bDCoMtXLS9Xqi-22">
          <mxGeometry relative="1" as="geometry" />
        </mxCell>
        <mxCell id="Jx1giT7bDCoMtXLS9Xqi-18" value="数据集collections" style="rounded=1;whiteSpace=wrap;html=1;" vertex="1" parent="1">
          <mxGeometry x="570" y="550" width="120" height="60" as="geometry" />
        </mxCell>
        <mxCell id="Jx1giT7bDCoMtXLS9Xqi-19" style="edgeStyle=orthogonalEdgeStyle;rounded=0;orthogonalLoop=1;jettySize=auto;html=1;exitX=0;exitY=0.5;exitDx=0;exitDy=0;entryX=1;entryY=0.25;entryDx=0;entryDy=0;" edge="1" parent="1" source="Jx1giT7bDCoMtXLS9Xqi-20" target="Jx1giT7bDCoMtXLS9Xqi-18">
          <mxGeometry relative="1" as="geometry" />
        </mxCell>
        <mxCell id="Jx1giT7bDCoMtXLS9Xqi-20" value="查询的参数IN&amp;nbsp; LIST" style="rounded=1;whiteSpace=wrap;html=1;" vertex="1" parent="1">
          <mxGeometry x="730" y="500" width="120" height="60" as="geometry" />
        </mxCell>
        <mxCell id="Jx1giT7bDCoMtXLS9Xqi-21" value="输出有参数OUT&amp;nbsp; LIST" style="rounded=1;whiteSpace=wrap;html=1;" vertex="1" parent="1">
          <mxGeometry x="730" y="600" width="120" height="60" as="geometry" />
        </mxCell>
        <mxCell id="Jx1giT7bDCoMtXLS9Xqi-22" value="输出图片资料及相应collections查询出来的结果" style="rounded=1;whiteSpace=wrap;html=1;" vertex="1" parent="1">
          <mxGeometry x="570" y="690" width="120" height="60" as="geometry" />
        </mxCell>
      </root>
    </mxGraphModel>
  </diagram>
</mxfile>
